# xmcd
# 
# Track frame offsets:
#     150
#     17155
#     31334
#     46622
#     61515
#     74136
#     90196
#     102712
#     116375
#     133281
#     148402
#     162046
# 
# Disc length: 2336
# 
# Revision: 1
# Processed by: cddbd v1.5.2PL0 Copyright (c) Steve Scherf et al.
# Submitted via: fre:ac v1.0.31
# 
DISCID=a2091e0c
DTITLE=Ricchi E Poveri - Le Canzoni La Nostra Storia CD3
DYEAR=2011
DGENRE=Disco
TTITLE0=La Prima Cosa Bella
TTITLE1=Primo Sole, Primo Fiore
TTITLE2=Che Sara
TTITLE3=L'Amore E' Una Cosa Meravigliosa
TTITLE4=In Questa Citta
TTITLE5=Amici Miei
TTITLE6=Due Gocce D'Acqua
TTITLE7=Monna Lisa E Messer Duca
TTITLE8=Ma La Mia Strada Sara Breve
TTITLE9=Poveri
TTITLE10=Alla faccia di belzebu
TTITLE11=Un'Immagine
EXTD=
EXTT0=
EXTT1=
EXTT2=
EXTT3=
EXTT4=
EXTT5=
EXTT6=
EXTT7=
EXTT8=
EXTT9=
EXTT10=
EXTT11=
PLAYORDER=
